<?xml version="1.0" encoding="utf-8"?>
<!-- Generator: Adobe Illustrator 16.0.5, SVG Export Plug-In . SVG Version: 6.00 Build 0)  -->
<!DOCTYPE svg PUBLIC "-//W3C//DTD SVG 1.1//EN" "http://www.w3.org/Graphics/SVG/1.1/DTD/svg11.dtd">
<svg version="1.1" id="Layer_1" xmlns="http://www.w3.org/2000/svg" xmlns:xlink="http://www.w3.org/1999/xlink" x="0px" y="0px"
	 width="418.978px" height="77.043px" viewBox="0 0 418.978 77.043" enable-background="new 0 0 418.978 77.043"
	 xml:space="preserve">
<path fill="#28B6C9" d="M77.67,66.17c0,4.304-3.489,7.793-7.792,7.793H13.792C9.489,73.963,6,70.474,6,66.17V8.792
	C6,4.489,9.489,1,13.792,1h56.086c4.303,0,7.792,3.489,7.792,7.792V66.17z"/>
<g>
	<path fill="#F4F4F8" d="M41.908,35.315l22.464,1.013c-1.664-0.326-5.758-1.952-13.575-9.535c-8.679-8.421-9.837-13.66-9.962-15.359
		L41.908,35.315z"/>
	<path fill="#F4F4F8" d="M39.739,35.314l1.085-24.077c0-0.009-0.001-0.02-0.001-0.029c-0.042,1.423-0.875,6.757-9.974,15.584
		c-7.78,7.546-11.872,9.194-13.551,9.53L39.739,35.314z"/>
	<path fill="#F4F4F8" d="M39.739,37.483l-22.441-1.012c1.678,0.337,5.771,1.982,13.551,9.53c8.721,8.463,9.848,13.711,9.963,15.384
		L39.739,37.483z"/>
	<path fill="#F4F4F8" d="M41.908,37.483l-1.085,24.086c0,0.006,0,0.011,0,0.016c0.042-1.423,0.876-6.756,9.975-15.583
		c7.744-7.512,11.833-9.178,13.527-9.525L41.908,37.483z"/>
</g>
<rect x="85.888" y="8.653" fill="none" width="333.09" height="43.128"/>
<text transform="matrix(1 0 0 1 85.8877 37.2124)" fill="#25B5C8" font-family="'HelveticaNeue-Light'" font-size="40">Badrumsrenovering</text>
<text transform="matrix(1 0 0 1 85.8877 66.9326)" fill="#25B5C8" font-family="'HelveticaNeue-Light'" font-size="30">Stockholm</text>
</svg>
