<svg xmlns="http://www.w3.org/2000/svg" xmlns:xlink="http://www.w3.org/1999/xlink" version="1.1" x="0px" y="0px" viewBox="0 0 100 125" enable-background="new 0 0 100 100" xml:space="preserve"><g><path fill="#000000" d="M51.853,47.851l44.593,2.011c-3.302-0.646-11.43-3.874-26.948-18.928   C52.271,14.219,49.971,3.82,49.723,0.445L51.853,47.851z"/><path fill="#000000" d="M47.547,47.85l2.154-47.794C49.7,0.038,49.699,0.017,49.698,0c-0.083,2.825-1.737,13.412-19.799,30.934   C14.457,45.915,6.333,49.185,3.001,49.852L47.547,47.85z"/><path fill="#000000" d="M47.546,52.156L3,50.148c3.331,0.668,11.455,3.934,26.899,18.918c17.313,16.797,19.55,27.217,19.778,30.537   L47.546,52.156z"/><path fill="#000000" d="M51.853,52.156l-2.155,47.812c0,0.01,0,0.021,0.001,0.031c0.083-2.824,1.739-13.412,19.799-30.934   c15.372-14.912,23.491-18.219,26.854-18.908L51.853,52.156z"/></g><text x="0" y="115" fill="#000000" font-size="5px" font-weight="bold" font-family="'Helvetica Neue', Helvetica, Arial-Unicode, Arial, Sans-serif">Created by William Rajwan</text><text x="0" y="120" fill="#000000" font-size="5px" font-weight="bold" font-family="'Helvetica Neue', Helvetica, Arial-Unicode, Arial, Sans-serif">from the Noun Project</text></svg>